<svg width="753" height="517" viewBox="0 0 753 517" fill="none" xmlns="http://www.w3.org/2000/svg">
<g clip-path="url(#clip0_303_87)">
<path d="M455.821 214.039C453.538 218.236 448.538 218.812 440.528 218.014C434.503 217.414 429.009 216.949 422.984 213.566C418.768 211.199 415.429 207.998 412.993 204.889C410.353 201.521 406.668 197.676 408.474 193.857C410.957 188.611 425.314 184.192 439.254 191.418C454.568 199.358 458.054 209.938 455.821 214.039Z" fill="url(#paint0_linear_303_87)"/>
<path d="M523.833 227.459C512.171 233.418 496.691 225.757 496.691 225.757C496.691 225.757 500.131 208.438 511.8 202.488C523.463 196.53 538.937 204.183 538.937 204.183C538.937 204.183 535.496 221.501 523.833 227.459Z" fill="url(#paint1_linear_303_87)"/>
<path d="M221.05 196.976C230.299 202.686 243.57 197.408 243.57 197.408C243.57 197.408 241.835 182.875 232.579 177.172C223.33 171.463 210.066 176.735 210.066 176.735C210.066 176.735 211.8 191.267 221.05 196.976Z" fill="url(#paint2_linear_303_87)"/>
<path d="M598.357 150.195C593.147 150.195 588.923 154.545 588.923 159.911C588.923 165.277 593.147 169.627 598.357 169.627C603.567 169.627 607.791 165.277 607.791 159.911C607.791 154.545 603.567 150.195 598.357 150.195Z" fill="#25A55F"/>
<path d="M211.522 249.205C205.66 249.205 200.908 254.099 200.908 260.135C200.908 266.172 205.66 271.066 211.522 271.066C217.383 271.066 222.135 266.172 222.135 260.135C222.135 254.099 217.383 249.205 211.522 249.205Z" fill="#25A55F"/>
<path d="M489.756 179.163C487.477 179.163 485.629 177.26 485.629 174.913C485.629 172.565 487.477 170.662 489.756 170.662C492.036 170.662 493.883 172.565 493.883 174.913C493.883 177.26 492.036 179.163 489.756 179.163Z" fill="#25A55F"/>
<path d="M446.63 356.63C443.699 356.63 441.323 354.183 441.323 351.164C441.323 348.145 443.699 345.698 446.63 345.698C449.561 345.698 451.937 348.145 451.937 351.164C451.937 354.183 449.561 356.63 446.63 356.63Z" fill="#E1E4E5"/>
<path d="M173.509 301.348C169.276 301.348 165.844 297.814 165.844 293.454C165.844 289.094 169.276 285.56 173.509 285.56C177.742 285.56 181.173 289.094 181.173 293.454C181.173 297.814 177.742 301.348 173.509 301.348Z" fill="#E1E4E5"/>
<path d="M231.264 112.567C228.042 112.567 225.43 109.877 225.43 106.559C225.43 103.241 228.042 100.551 231.264 100.551C234.486 100.551 237.098 103.241 237.098 106.559C237.098 109.877 234.486 112.567 231.264 112.567Z" fill="#E1E4E5"/>
<path d="M513.901 153.352C510.319 153.352 507.415 150.362 507.415 146.673C507.415 142.984 510.319 139.993 513.901 139.993C517.483 139.993 520.387 142.984 520.387 146.673C520.387 150.362 517.483 153.352 513.901 153.352Z" fill="#E1E4E5"/>
<path d="M178.805 156.261C179.637 159.461 177.793 162.75 174.686 163.607C171.58 164.465 168.386 162.566 167.554 159.366C166.721 156.166 168.565 152.877 171.672 152.02C174.779 151.163 177.972 153.061 178.805 156.261Z" fill="#E1E4E5"/>
<path d="M308.08 64.1348C303.801 64.1348 300.332 60.5621 300.332 56.1549C300.332 51.7477 303.801 48.175 308.08 48.175C312.359 48.175 315.828 51.7477 315.828 56.1549C315.828 60.5621 312.359 64.1348 308.08 64.1348Z" fill="#E1E4E5"/>
<path d="M527.201 266.393C523.91 266.393 521.241 264.194 521.241 261.482C521.241 258.77 523.91 256.571 527.201 256.571C530.493 256.571 533.162 258.77 533.162 261.482C533.162 264.194 530.493 266.393 527.201 266.393Z" fill="#E1E4E5"/>
<path d="M454.462 52.5564C456.195 59.2161 452.357 66.0615 445.891 67.846C439.424 69.6304 432.777 65.6783 431.045 59.0185C429.312 52.3588 433.15 45.5135 439.616 43.729C446.082 41.9445 452.729 45.8967 454.462 52.5564Z" fill="#E1E4E5"/>
<path d="M531.017 307.743H531.173C532.097 321.216 541.825 321.422 541.825 321.422C541.825 321.422 531.097 321.639 531.097 337.206C531.097 321.639 520.369 321.422 520.369 321.422C520.369 321.422 530.094 321.216 531.017 307.743ZM259.748 337.472H259.886C260.706 349.665 269.338 349.853 269.338 349.853C269.338 349.853 259.819 350.048 259.819 364.138C259.819 350.048 250.3 349.853 250.3 349.853C250.3 349.853 258.929 349.665 259.748 337.472Z" fill="#E1E4E5"/>
<path d="M292.597 212.083C357.412 208.304 425.366 227.987 415.378 256.519C405.388 285.052 468.782 246.385 494.079 256.673C512.09 263.996 504.89 286.291 513.603 295.275C533.58 315.872 554.013 289.935 579.44 305.498C604.865 321.061 552.808 466.312 526.246 467.124L223.281 465.274L201.539 463.311C201.539 463.311 141.399 430.27 184.42 399.79C213.509 379.182 192.579 364.215 189.414 354.781C185.783 343.947 177.307 325.027 214.236 311.143C251.165 297.26 241.631 267.048 240.721 260.793C239.814 254.536 227.784 215.862 292.597 212.083Z" fill="url(#paint3_linear_303_87)"/>
<path d="M402.924 326.574H346.953C345.105 326.574 343.607 328.117 343.607 330.021V384.764C343.607 386.668 345.105 388.211 346.953 388.211H402.924C404.773 388.211 406.271 386.668 406.271 384.764V330.021C406.271 328.117 404.773 326.574 402.924 326.574Z" fill="white" stroke="#E1E4E5" stroke-width="7"/>
<path d="M359.46 336.625H406.881M377.515 225.055V326.573" stroke="#E1E4E5" stroke-width="7"/>
<path d="M407.886 285.565C387.639 282.647 379.172 298.161 377.129 308.157C376.795 309.788 377.834 311.339 379.413 311.708C403.272 317.28 409.944 300.267 410.463 288.718C410.535 287.136 409.409 285.784 407.886 285.565Z" fill="white" stroke="#E1E4E5" stroke-width="7"/>
<path d="M376.503 308.826L399.034 293.598" stroke="#E1E4E5" stroke-width="7"/>
<path d="M398.031 255.34C384.769 253.824 378.887 263.68 377.19 270.622C376.795 272.238 377.845 273.805 379.432 274.135C395.154 277.407 399.95 266.462 400.57 258.458C400.692 256.879 399.56 255.515 398.031 255.34Z" fill="white" stroke="#E1E4E5" stroke-width="7"/>
<path d="M376.092 271.18L392.052 260.394" stroke="#E1E4E5" stroke-width="7"/>
<path d="M391.696 228.015C382.385 227.254 378.009 233.968 376.544 239.106C376.088 240.706 377.127 242.283 378.721 242.571C389.838 244.58 393.528 237.026 394.189 231.092C394.365 229.518 393.23 228.14 391.696 228.015Z" fill="white" stroke="#E1E4E5" stroke-width="7"/>
<path d="M375.154 239.595L387.358 231.346" stroke="#E1E4E5" stroke-width="7"/>
<path d="M345.516 285.565C365.763 282.647 374.229 298.161 376.273 308.157C376.606 309.788 375.567 311.339 373.989 311.708C350.13 317.28 343.458 300.267 342.939 288.718C342.868 287.136 343.992 285.784 345.516 285.565Z" fill="white" stroke="#E1E4E5" stroke-width="7"/>
<path d="M376.899 308.826L354.367 293.598" stroke="#E1E4E5" stroke-width="7"/>
<path d="M355.372 255.34C368.634 253.824 374.516 263.68 376.212 270.622C376.608 272.238 375.557 273.805 373.971 274.135C358.248 277.407 353.452 266.462 352.833 258.458C352.71 256.879 353.842 255.515 355.372 255.34Z" fill="white" stroke="#E1E4E5" stroke-width="7"/>
<path d="M377.309 271.181L361.35 260.395" stroke="#E1E4E5" stroke-width="7"/>
<path d="M360.297 228.015C369.607 227.254 373.983 233.968 375.449 239.106C375.905 240.706 374.865 242.283 373.272 242.571C362.154 244.58 358.464 237.026 357.803 231.092C357.628 229.518 358.762 228.14 360.297 228.015Z" fill="white" stroke="#E1E4E5" stroke-width="7"/>
<path d="M376.84 239.595L364.635 231.346M103.934 346.204L102.556 322.079C101.925 311.024 108.57 300.844 119.144 298.826C151.419 292.67 198.022 292.6 227.699 298.617C237.744 300.654 243.775 310.44 243.173 320.964L241.732 346.204M125.268 395.19C125.268 381.663 135.916 370.697 149.051 370.697H196.615C209.75 370.697 220.398 381.663 220.398 395.19V407.436H125.268V395.19Z" stroke="#E1E4E5" stroke-width="7"/>
<path d="M220.398 444.176V358.449C220.398 351.686 225.721 346.203 232.289 346.203H243.414C250.273 346.203 255.71 352.164 255.282 359.214L250.822 432.693C250.431 439.148 245.234 444.176 238.954 444.176H220.398ZM220.398 444.176V462.545M220.398 444.176H125.267V462.545M306.56 444.176V462.545M447.276 444.176V462.545M512.104 346.203L510.726 322.078C510.096 311.023 516.741 300.843 527.315 298.826C559.59 292.669 606.194 292.599 635.871 298.616C645.915 300.653 651.947 310.439 651.345 320.963L649.904 346.203M533.439 444.176V358.449C533.439 351.686 528.115 346.203 521.548 346.203H510.423C503.564 346.203 498.127 352.164 498.555 359.214L503.014 432.693C503.406 439.148 508.603 444.176 514.882 444.176H533.439ZM533.439 444.176V462.545M533.439 444.176H628.569M628.569 444.176V358.449C628.569 351.686 633.893 346.203 640.46 346.203H651.585C658.444 346.203 663.881 352.164 663.453 359.214L658.994 432.693C658.602 439.148 653.405 444.176 647.126 444.176H628.569ZM628.569 444.176V462.545M90.383 359.214C89.9554 352.164 95.3921 346.203 102.251 346.203H113.376C119.943 346.203 125.268 351.686 125.268 358.449V444.176H106.711C100.431 444.176 95.234 439.148 94.8424 432.693L90.383 359.214ZM292.581 425.639C292.581 405.498 311.461 389.169 334.75 389.169H419.086C442.376 389.169 461.255 405.498 461.255 425.639V443.875H292.581V425.639ZM533.439 395.19C533.439 381.663 544.086 370.696 557.221 370.696H604.786C617.921 370.696 628.569 381.663 628.569 395.19V407.436H533.439V395.19Z" stroke="#E1E4E5" stroke-width="7"/>
<path d="M417.848 129.27H193.419C191.571 129.27 190.072 130.813 190.072 132.717V146.635C190.072 148.538 191.571 150.081 193.419 150.081H417.848C419.696 150.081 421.194 148.538 421.194 146.635V132.717C421.194 130.813 419.696 129.27 417.848 129.27Z" fill="white" stroke="#E1E4E5" stroke-width="7"/>
<path d="M243.559 108.459H223.73C221.882 108.459 220.384 110.002 220.384 111.905V125.823C220.384 127.727 221.882 129.27 223.73 129.27H243.559C245.408 129.27 246.906 127.727 246.906 125.823V111.905C246.906 110.002 245.408 108.459 243.559 108.459Z" fill="white" stroke="#E1E4E5" stroke-width="7"/>
<path d="M243.559 68.1368H223.73C221.882 68.1368 220.384 69.6799 220.384 71.5835V105.012C220.384 106.916 221.882 108.459 223.73 108.459H243.559C245.408 108.459 246.906 106.916 246.906 105.012V71.5835C246.906 69.6799 245.408 68.1368 243.559 68.1368Z" fill="white" stroke="#E1E4E5" stroke-width="7"/>
<path d="M267.556 69.438H250.253C248.404 69.438 246.906 70.9811 246.906 72.8847V123.222C246.906 125.126 248.404 126.669 250.253 126.669H267.556C269.404 126.669 270.902 125.126 270.902 123.222V72.8847C270.902 70.9811 269.404 69.438 267.556 69.438Z" fill="white" stroke="#E1E4E5" stroke-width="7"/>
<path d="M291.552 69.438H274.249C272.4 69.438 270.902 70.9811 270.902 72.8847V123.222C270.902 125.126 272.4 126.669 274.249 126.669H291.552C293.4 126.669 294.898 125.126 294.898 123.222V72.8847C294.898 70.9811 293.4 69.438 291.552 69.438Z" fill="white" stroke="#E1E4E5" stroke-width="7"/>
<path d="M393.409 125.823V117.108C393.409 115.205 391.911 113.662 390.063 113.662H320.978C319.129 113.662 317.631 115.205 317.631 117.108V125.823C317.631 127.727 319.129 129.27 320.978 129.27H390.063C391.911 129.27 393.409 127.727 393.409 125.823Z" fill="white" stroke="#E1E4E5" stroke-width="7"/>
<path d="M394.672 108.914V102.8C394.672 100.897 393.174 99.3535 391.326 99.3535H332.345C330.497 99.3535 328.998 100.897 328.998 102.8V108.914C328.998 110.817 330.497 112.36 332.345 112.36H391.326C393.174 112.36 394.672 110.817 394.672 108.914Z" fill="white" stroke="#E1E4E5" stroke-width="7"/>
<path d="M243.559 44.7248H223.73C221.882 44.7248 220.384 46.2679 220.384 48.1714V64.6904C220.384 66.5939 221.882 68.137 223.73 68.137H243.559C245.408 68.137 246.906 66.5939 246.906 64.6904V48.1714C246.906 46.2679 245.408 44.7248 243.559 44.7248Z" fill="white" stroke="#E1E4E5" stroke-width="7"/>
<path d="M516.396 159.428C542.043 159.428 562.834 138.016 562.834 111.602C562.834 85.1884 542.043 63.776 516.396 63.776C490.749 63.776 469.958 85.1884 469.958 111.602C469.958 138.016 490.749 159.428 516.396 159.428Z" fill="white" stroke="#E1E4E5" stroke-width="7"/>
<path d="M515.672 115.019V87.6901M535.131 138.564L515.229 113.513" stroke="#E1E4E5" stroke-width="7"/>
<path fill-rule="evenodd" clip-rule="evenodd" d="M537.379 443.67C537.379 443.67 542.317 453.942 538.269 457.179C534.215 460.417 523.506 466.484 523.506 466.484L551.878 464.648L545.571 442.245L537.379 443.67Z" fill="#F8AE9D"/>
<path fill-rule="evenodd" clip-rule="evenodd" d="M549.071 452.965C548.178 453.403 549.647 457.531 546.505 457.24C543.365 456.951 541.393 452.685 539.077 452.962C536.761 453.239 535.29 457.534 530.88 460.527C526.471 463.52 519.933 467.089 520.372 470.097C520.809 473.106 531.097 473.912 536.31 472.916C541.521 471.92 543.954 469.763 547.336 469.935C550.717 470.107 552.842 469.681 553.902 467.444C554.961 465.208 550.102 452.458 549.071 452.965ZM580.123 353.136C571.533 353.531 523.727 364.421 515.042 366.271C506.355 368.121 499.013 378.132 505.636 389.724C513.075 402.737 532.268 439.693 536.929 448.024C539.235 452.147 550.872 449.835 548.138 442.914C543.043 430.012 540.676 397.602 527.686 385.786C527.686 385.786 571.373 393.616 590.244 384.646C603.96 378.126 600.857 352.181 580.123 353.136Z" fill="#234331"/>
<path fill-rule="evenodd" clip-rule="evenodd" d="M520.201 297.918C520.201 297.918 520.298 292.659 517.854 288.898C515.409 285.136 515.312 281.141 513.462 281.272C511.611 281.403 513.444 290.69 513.444 290.69C513.444 290.69 511.096 289.766 509.409 288.597C507.723 287.429 502.61 281.67 501.414 282.69C499.388 284.43 502.651 294.239 504.429 296.2C506.212 298.162 515.014 303.644 515.014 303.644L540.933 330.536L544.809 316.26L520.201 297.918Z" fill="#F8AE9D"/>
<path fill-rule="evenodd" clip-rule="evenodd" d="M572.048 295.543C568.053 305.088 560.737 322.621 557.72 327.852C553.941 334.402 547.981 337.289 541.002 332.428C539.542 331.411 535.349 327.854 535.349 327.854C535.97 321.628 538.229 316.424 542.122 312.24L544.765 314.494C544.765 314.494 552.265 294.697 558.296 283.229C563.52 273.307 578.131 281.033 572.048 295.543ZM589.317 258.496V266.941L595.34 261.948C595.34 261.948 597.19 253.856 598.695 247.846C599.64 244.078 601.94 231.323 592.681 231.921C585.095 218.151 563.006 226.674 562.83 243.497C562.618 263.73 562.791 271.608 562.791 271.608C575.282 272.346 582.313 270.487 589.317 258.496Z" fill="#234331"/>
<path fill-rule="evenodd" clip-rule="evenodd" d="M595.47 274.577C595.47 274.577 589.867 273.222 589.673 263.769C589.479 254.315 589.615 251.089 589.615 251.089L577.276 250.859C577.276 250.859 577.142 261.395 577.14 265.206C577.134 274.472 570.519 275.231 570.519 275.231C570.519 275.231 571.649 282.875 582.83 283.523C591.56 284.029 595.47 274.577 595.47 274.577Z" fill="#F8AE9D"/>
<path fill-rule="evenodd" clip-rule="evenodd" d="M592.489 246.368C597.994 246.149 597.096 254.448 591.378 254.436C591.378 254.436 588.057 266.226 576.526 266.226C567.162 266.226 566.552 252.485 566.467 249.744C566.376 246.821 566.364 237.22 566.364 237.22L592.703 237.207L592.489 246.368Z" fill="#F8AE9D"/>
<path fill-rule="evenodd" clip-rule="evenodd" d="M592.915 246.313C590.634 246.701 590.91 248.256 590.29 248.12C587.14 247.431 574.391 248.34 572.748 241.12C570.706 245.631 570.207 246.74 565.709 247.95V234.732L594.158 231.922C594.158 231.922 593.716 246.176 592.915 246.313Z" fill="#234331"/>
<path fill-rule="evenodd" clip-rule="evenodd" d="M594.214 273.611C587.184 278.045 579.056 279.671 571.491 274.855C559.144 299.927 556.068 329.842 559.037 362.905C577.041 370.245 592.173 368.802 605.055 360.412L594.214 273.611Z" fill="#25A55F"/>
<path fill-rule="evenodd" clip-rule="evenodd" d="M506.605 444.082C506.605 444.082 506.754 456.172 497.08 460.692C487.414 465.212 480.526 464.939 481.403 468.434C482.28 471.928 507.442 471.787 509.792 469.055C511.794 466.73 516.15 445.082 517.349 446.738L506.605 444.082Z" fill="#F8AE9D"/>
<path fill-rule="evenodd" clip-rule="evenodd" d="M514.432 456.709C512.819 455.827 512.416 462.278 508.195 461.094C503.973 459.91 506.355 453.698 503.702 452.987C501.051 452.277 496.961 458.68 490.706 460.976C484.451 463.271 479.385 465.224 478.242 468.014C477.256 470.413 478.63 470.942 478.63 470.942C478.63 470.942 485.252 473.258 489.197 473.417C494.927 473.649 511.191 472.053 512.716 469.945C513.653 468.652 515.238 457.151 514.432 456.709ZM607.034 349.4C607.034 349.4 619.522 376.559 601.972 385.886C585.001 394.905 534.195 384.238 534.195 384.238C534.195 384.238 535.103 391.766 534.195 398.479C531.824 416.014 520.546 445.229 518.161 448.9C514.861 453.976 504.81 450.147 504.621 445.921C504.432 441.694 512.198 387.71 513.378 377.416C514.554 367.121 518.263 365.625 529.097 362.811C531.586 362.165 561.019 354.632 563.715 354.851C586.883 356.738 607.034 349.4 607.034 349.4Z" fill="#234331"/>
<path fill-rule="evenodd" clip-rule="evenodd" d="M593.911 273.63C582.268 312.91 575.286 368.599 611.648 358.91C592.332 322.283 618.592 305.798 612.64 286.869C610.605 280.397 594.063 273.122 593.911 273.63ZM572.112 274.58C567.669 286.056 565.533 295.061 563.54 311.908C561.878 325.939 562.71 354.891 562.71 354.891L557.22 356.003C557.22 356.003 553.294 311.272 554.607 305.513C556.809 295.848 558.301 290.201 561.209 281.366C562.811 276.517 572.112 274.58 572.112 274.58Z" fill="#234331"/>
<path fill-rule="evenodd" clip-rule="evenodd" d="M591.466 318.224C591.466 318.224 584.296 310.831 581.814 309.973C579.332 309.115 565.732 308.084 565.824 310.023C565.928 312.1 574.679 311.981 575.488 313.003C576.298 314.024 577.423 321.976 580.482 322.76C583.535 323.544 589.863 325.866 589.863 325.866L618.032 340.855L615.031 325.867L591.466 318.224Z" fill="#F8AE9D"/>
<path fill-rule="evenodd" clip-rule="evenodd" d="M613.04 286.921C621.585 299.341 628.88 318.259 631.68 325.635C634.48 333.011 631.656 344.136 619.343 341.952C617.876 341.692 615.491 340.736 615.491 340.736C610.964 334.344 610.169 328.857 611.86 323.97L613.452 324.663C613.452 324.663 601.214 302.322 598.225 296.333C593.234 286.331 605.513 275.979 613.04 286.921Z" fill="#234331"/>
<path d="M265.562 402.705C271.469 400.65 276.588 396.272 279.578 390.657C280.422 389.109 281.111 387.33 280.884 385.569C280.827 385.211 280.738 384.786 280.424 384.619C280.142 384.452 279.762 384.543 279.445 384.636C269.579 387.377 259.148 391.997 248.792 391.509C248.318 391.503 247.845 391.462 247.431 391.652C246.922 391.871 246.599 392.354 246.371 392.871C245.588 394.551 244.909 397.729 245.165 399.62C245.48 401.87 247.592 402.196 249.449 402.681C254.736 404.065 260.29 404.542 265.562 402.705Z" fill="#F8AE9D"/>
<path d="M266.471 390.094C267.266 389.748 268.093 389.402 268.946 389.383C269.799 389.365 270.74 389.835 271.012 390.685C271.192 391.273 271.026 391.889 270.797 392.439C270.175 393.861 269.084 395.014 267.931 396.038C263.515 399.873 257.857 402.193 252.07 402.558C249.509 402.713 246.826 402.476 244.57 401.237C245.697 399.823 245.473 397.802 245.595 396.014C245.956 390.781 250.287 392.768 253.762 392.758C258.124 392.663 262.465 391.788 266.471 390.094Z" fill="#F8AE9D"/>
<path d="M134.284 351.387C134.218 351.581 134.152 351.775 134.086 351.97C132.698 356.112 131.624 360.391 131.18 364.777C130.366 372.833 131.902 382.261 137.787 388.112C145.633 395.914 158.221 397.119 168.454 395.262C172.642 394.508 176.585 392.703 179.936 390.008C183.271 393.118 186.855 396.525 189.837 399.989C195.826 397.831 201.527 394.903 206.804 391.274C219.292 397.163 232.029 401.137 245.477 404.016C247.014 400.078 248.093 395.966 248.691 391.766C248.796 391.085 240.415 385.26 239.447 384.431C236.546 381.912 230.502 376.157 230.502 376.157C230.502 376.157 238.12 369.475 241.452 366.339C244.977 363.078 248.359 359.657 251.587 356.085C254.252 353.134 256.858 350.018 258.492 346.334C260.125 342.683 260.726 338.365 259.36 334.569C255.048 322.756 237.642 326.908 229.556 330.979C222.872 334.356 217.018 339.276 211.384 344.263C209.112 346.245 206.869 348.292 204.66 350.307C202.918 348.458 200.994 346.052 199.349 344.108C197.579 341.997 195.555 340.013 193.109 338.771C190.538 337.429 188.166 337.62 185.423 337.22C184.193 337.037 182.998 336.66 181.801 336.447C178.209 335.772 174.408 336.494 171.252 338.397C168.255 340.204 165.822 342.346 162.305 343.04C158.313 343.823 153.675 343.361 149.671 342.809C146.076 342.297 142.424 341.46 138.843 342.184C137.354 342.487 136.785 344.626 136.293 345.854C135.635 347.634 134.945 349.478 134.284 351.387ZM166.01 215.123C166.01 215.123 156.343 213.54 153.747 231.116C150.863 250.654 143.161 247.44 130.929 263.306C123.78 272.576 131.303 288.948 146.591 288.623C161.878 288.307 175.685 283.755 184.479 285.702C193.273 287.65 193.755 264.454 185.079 257.297C176.402 250.14 194.902 229.588 183.629 220.435C172.356 211.284 166.01 215.123 166.01 215.123Z" fill="#234331"/>
<path d="M108.226 292.625C107.344 290.759 107.398 288.592 107.716 286.569C109.094 277.887 115.001 270.632 121.773 265.316C128.567 259.985 136.343 256.18 143.491 251.404C145.346 250.16 147.206 248.821 149.335 248.149C151.465 247.476 153.94 247.548 155.698 248.963C156.94 249.955 157.658 251.49 158.075 253.025C158.991 256.385 158.64 259.944 158.082 263.354C157.384 267.653 156.359 271.908 154.677 275.861C153.328 279.049 151.133 282.329 147.834 282.954C146.879 286.763 144.913 290.335 142.156 293.066C139.003 296.199 135.005 298.248 130.856 299.678C127.034 300.999 122.852 301.861 119.007 300.628C116.724 299.911 114.715 298.528 112.748 297.119C110.994 295.918 109.174 294.604 108.226 292.625ZM142.776 286.836L145.033 283.146C144.555 283.189 144.085 283.303 143.639 283.485C142.4 284.037 141.653 286.047 142.776 286.836Z" fill="#234331"/>
<path d="M184.595 230.581C184.712 231.233 184.733 231.917 184.69 232.697C184.435 237.254 183.483 241.741 181.872 245.993C180.887 248.516 179.681 251.002 177.976 253.091C177.268 253.959 176.466 254.759 175.419 255.068C174.34 255.377 172.981 255.421 171.911 255.143C170.967 259.164 171.361 266.751 174.731 269.602C175.761 270.464 176.985 271.004 178.21 271.479C180.597 272.427 183.082 273.149 185.571 273.709C188.404 274.339 191.493 274.81 193.484 276.956C193.733 277.22 193.98 277.582 193.88 277.939C193.813 278.165 193.654 278.326 193.462 278.452C191.895 279.762 189.956 280.48 188.019 281.166C184.621 282.349 181.131 283.335 177.583 283.996C173.876 284.686 170.049 285.017 166.295 284.6C163.394 284.262 160.53 283.502 157.895 282.158C155.136 280.749 152.31 279.598 149.454 278.252C147.039 277.108 144.657 275.802 142.041 275.338C143.278 272.917 145.857 271.558 148.425 270.915C150.994 270.304 153.679 270.249 156.278 269.737C157.134 269.555 157.99 269.34 158.724 268.798C160.738 267.301 160.186 263.973 160.218 261.794L160.32 254.897C160.02 251.606 158.703 248.852 157.546 245.841C155.782 241.225 155.417 235.981 156.972 231.255C158.526 226.561 162.062 222.484 166.604 220.83C171.146 219.177 176.598 220.108 180.086 223.547C182.297 225.761 184.1 227.742 184.595 230.581Z" fill="#F8AE9D"/>
<path d="M170.626 215.915C175.154 215.395 179.279 217.678 182.338 221.217C184.911 224.184 186.424 228.1 186.347 232.036C186.337 232.597 186.275 233.21 185.968 233.715C185.149 234.925 183.371 234.479 182.041 233.941C179.874 233.078 178.26 231.818 176.296 230.755C174.33 229.693 171.945 229.848 170.186 228.38C168.526 226.965 162.825 223.986 162.672 221.682C162.478 218.866 167.486 216.567 169.581 216.098C169.88 216.002 170.229 215.959 170.626 215.915Z" fill="#234331"/>
<path d="M157.583 222.29C153.754 224.833 151.958 229.287 151.759 234.021C151.584 237.995 152.815 242.015 155.288 245.015C155.642 245.443 156.064 245.877 156.613 246.069C157.99 246.475 159.094 244.972 159.794 243.689C160.945 241.61 161.422 239.584 162.293 237.481C163.164 235.379 165.109 233.947 165.571 231.664C165.991 229.488 168.58 223.469 167.287 221.583C165.709 219.274 160.416 220.751 158.506 221.752C158.215 221.871 157.918 222.064 157.583 222.29Z" fill="#234331"/>
<path d="M191.635 275.952C192.24 275.668 192.963 275.875 193.366 276.434C197.882 282.948 199.626 291.109 201.153 298.975C202.884 307.918 204.427 316.889 205.906 325.86C205.994 326.318 206.05 326.806 205.854 327.227C205.658 327.646 205.213 327.867 204.8 328.056C202.189 329.349 199.549 330.61 196.939 331.902C194.123 325.303 192.093 318.378 190.892 311.277C189.217 315.643 186.191 319.435 182.332 321.913C185.207 326.155 188.747 334.638 192.199 338.368C192.727 338.963 195.995 338.037 196.726 337.788C197.18 339.13 195.052 337.698 195.064 339.064C193.1 339.359 190.591 338.148 188.573 337.889C186.139 337.596 183.682 337.58 181.244 337.839C177.193 338.297 173.256 339.601 169.657 341.562C167.868 342.543 166.151 343.658 164.522 344.899C163.115 345.983 159.634 348.532 159.634 348.532C159.378 348.723 158.181 348.444 157.898 348.374C157.073 348.23 156.242 348.119 155.408 348.042C153.314 347.875 151.23 347.593 149.164 347.197C145.037 346.416 140.979 345.214 137.086 343.558C136.711 343.26 138.049 340.417 138.12 339.865C138.049 340.384 130.38 339.744 129.625 339.602C126.601 338.97 123.542 338.628 120.518 337.963C121.872 325.424 125.589 313.314 129.242 301.299C130.67 296.571 132.13 291.843 134.155 287.384C136.31 282.635 139.093 278.189 142.437 274.239C142.533 274.142 142.692 274.08 142.818 274.115C144.422 274.53 154.21 277.124 159.08 278.989C161.561 279.971 164.076 280.857 166.622 281.743C167.627 282.084 168.666 282.425 169.708 282.409C170.403 282.388 171.101 282.236 171.766 282.083C178.551 280.531 185.336 278.847 191.635 275.952Z" fill="#25A55F"/>
<path d="M147.478 300.932C147.198 302.717 146.824 304.534 146.45 306.317C145.54 310.365 144.374 314.347 142.957 318.237C142.233 320.177 141.479 322.086 140.63 323.992C140.205 324.929 139.78 325.866 139.323 326.802C139.096 327.254 138.868 327.739 138.64 328.191C138.445 328.578 138.218 328.933 138.023 329.288C139.383 329.244 146.09 329.643 147.479 329.761" stroke="white" stroke-width="1.376" stroke-miterlimit="10" stroke-linecap="round"/>
<path d="M147.697 331.164C147.556 332.078 147.384 332.987 147.182 333.889L146.573 336.612C146.372 337.39 145.916 338.36 145.904 339.172C145.906 339.01 151.284 338.541 151.791 338.484C157.391 337.921 163.02 337.586 168.617 337.218C172.254 336.982 175.823 337.07 179.456 337.095C180.529 337.111 181.795 337.001 182.377 336.099C182.863 335.326 182.466 334.344 182.856 333.634C183.107 333.702 186.035 334.464 186.004 334.399C186.12 335.084 186.352 336.519 187.042 336.855C187.293 336.957 187.546 336.993 187.798 336.997C188.177 337.003 188.557 336.944 188.937 336.885C188.996 336.885 189.052 336.863 189.096 336.823C189.16 336.758 189.098 336.66 189.037 336.561C188.175 335.25 187.724 333.699 187.744 332.116C186.837 331.484 185.931 330.753 185.153 329.96C184.531 329.299 184.069 328.446 183.383 327.883C182.665 327.253 181.965 327.633 181.172 327.848C180.254 328.06 179.344 328.306 178.443 328.586C176.698 329.145 174.95 329.834 173.48 330.949C172.969 331.331 172.489 331.747 171.886 331.933C171.314 332.119 170.683 332.109 170.083 332.1C166.388 332.009 162.694 331.821 159.035 331.406C155.281 330.99 152.722 331.048 147.804 330.287C147.804 330.32 147.8 330.613 147.697 331.164Z" fill="#F8AE9D"/>
<path d="M188.391 300.57C189.27 304.512 189.921 308.504 190.342 312.525" stroke="white" stroke-width="1.376" stroke-miterlimit="10" stroke-linecap="round"/>
<path d="M262.895 294.082L252.05 343.891L169.703 342.603C169.747 339.675 172.088 337.304 174.962 337.349L194.641 337.657L204.448 291.834C204.599 291.114 204.987 290.469 205.547 290.01C206.106 289.55 206.802 289.303 207.518 289.311L259.889 290.131C261.878 290.194 263.336 292.072 262.895 294.082Z" fill="#234331"/>
<path d="M155.323 415.786C155.704 413.514 156.781 411.188 157.79 409.154C161.957 400.824 169.405 394.954 177.426 390.914C178.254 390.504 179.081 390.094 179.939 389.782C179.875 389.879 179.809 389.976 179.745 390.104L179.744 390.137H179.712C179.808 390.073 179.872 390.009 179.968 389.946C183.21 392.957 186.667 396.265 189.62 399.597C187.669 401.227 184.837 402.549 183.431 403.633C180.108 406.152 176.909 408.835 173.462 411.189C168.834 414.403 163.903 416.733 158.39 417.754C156.267 418.143 155.155 418.549 155.18 416.857C155.216 416.597 155.253 416.241 155.323 415.786Z" fill="#F8AE9D"/>
<path d="M160.699 409.229C162.845 405.065 166.177 401.896 169.821 399.09C172.378 397.112 175.089 395.333 177.675 393.518C178.409 393.009 179.851 391.633 181.093 390.969C183.679 393.385 186.328 395.931 188.721 398.572C180.813 403.524 173.768 409.986 165.09 413.495C164.296 413.808 163.47 414.121 162.616 414.14C161.763 414.159 160.853 413.786 160.357 413.063C159.584 411.945 160.08 410.423 160.699 409.229Z" fill="#F8AE9D"/>
</g>
<defs>
<linearGradient id="paint0_linear_303_87" x1="440.441" y1="241.235" x2="418.919" y2="147.332" gradientUnits="userSpaceOnUse">
<stop stop-color="white"/>
<stop offset="1" stop-color="#EEEEEE"/>
</linearGradient>
<linearGradient id="paint1_linear_303_87" x1="479.047" y1="246.045" x2="577.407" y2="170.499" gradientUnits="userSpaceOnUse">
<stop stop-color="white"/>
<stop offset="1" stop-color="#EEEEEE"/>
</linearGradient>
<linearGradient id="paint2_linear_303_87" x1="256.844" y1="215.354" x2="180.392" y2="146.382" gradientUnits="userSpaceOnUse">
<stop stop-color="white"/>
<stop offset="1" stop-color="#EEEEEE"/>
</linearGradient>
<linearGradient id="paint3_linear_303_87" x1="386.479" y1="610.374" x2="381.655" y2="-66.385" gradientUnits="userSpaceOnUse">
<stop stop-color="white"/>
<stop offset="1" stop-color="#EEEEEE"/>
</linearGradient>
<clipPath id="clip0_303_87">
<rect width="753" height="517" fill="white"/>
</clipPath>
</defs>
</svg>
